<svg style="display: none;" xmlns="http://www.w3.org/2000/svg" xmlns:xlink="http://www.w3.org/1999/xlink"><symbol id="icon-alert-circle-?" viewBox="0 0 48 48"><title>alert circle ?</title><g ><path d="M24,1C11.317,1,1,11.318,1,24s10.317,23,23,23s23-10.318,23-23S36.683,1,24,1z M24,37c-1.105,0-2-0.895-2-2&#10;&#9;s0.895-2,2-2s2,0.895,2,2S25.105,37,24,37z M25,25.925V29c0,0.552-0.447,1-1,1s-1-0.448-1-1v-4c0-0.552,0.447-1,1-1&#10;&#9;c2.663,0,5-2.336,5-5s-2.337-5-5-5c-1.853,0-3.859,1.395-4.668,3.243c-0.22,0.506-0.809,0.739-1.316,0.516&#10;&#9;c-0.506-0.221-0.737-0.811-0.516-1.317C18.625,13.868,21.358,12,24,12c3.794,0,7,3.206,7,7C31,22.456,28.341,25.423,25,25.925z"/></g></symbol></svg>
