<?xml version="1.0" encoding="UTF-8" standalone="no"?>
<svg width="70px" height="66px" viewBox="0 0 70 66" version="1.1" xmlns="http://www.w3.org/2000/svg" xmlns:xlink="http://www.w3.org/1999/xlink">
    <!-- Generator: Sketch 41.2 (35397) - http://www.bohemiancoding.com/sketch -->
    <title>Logo</title>
    <desc>Created with Sketch.</desc>
    <defs>
        <polygon id="path-1" points="1.0967363e-20 0.0434128055 1.0967363e-20 20.305294 69.7202023 20.305294 69.7202023 0.0434128055 0 0.0434128055"></polygon>
    </defs>
    <g id="Symbols" stroke="none" stroke-width="1" fill="none" fill-rule="evenodd">
        <g id="Left-Nav" transform="translate(-65.000000, -35.000000)">
            <g id="Logo">
                <g transform="translate(65.000000, 35.000000)">
                    <path d="M32.681948,64.7725149 L36.7281908,64.7725149 L36.7281908,59.9914208 C35.9189422,59.2019494 35.2662832,58.359278 34.705474,57.4670616 C34.1442601,58.359278 33.4911965,59.2023555 32.681948,59.9914208 L32.681948,64.7725149 Z" id="Fill-1" fill="#8FD1B6"></path>
                    <path d="M32.6104913,10.1129095 C33.2089306,9.68081196 33.8300289,9.27470526 34.4741908,8.89905657 L34.8363295,8.68788109 L35.1984682,8.89905657 C35.8325145,9.26901977 36.4439017,9.66822265 37.0334393,10.0926041 C38.3387572,8.67854064 39.8237283,7.42326485 41.4604335,6.36616913 C39.7464451,3.82475345 37.494711,1.63665058 34.8124566,4.06106693e-05 C32.1297977,1.63665058 29.8780636,3.82434734 28.1640751,6.36616913 C29.8088728,7.42854424 31.3003179,8.69072384 32.6104913,10.1129095" id="Fill-3" fill="#8FD1B7"></path>
                    <path d="M38.1819653,10.9771045 C41.2785549,13.5193324 43.6484393,16.8238226 45.0820231,20.5234546 C45.1803468,20.7776773 45.2750289,21.0335246 45.3648555,21.2914023 C45.4951445,21.1919062 45.6262428,21.0936284 45.7585549,20.996975 C46.012659,20.8117903 46.2712139,20.631885 46.5330058,20.4568531 C48.2983815,19.2763009 50.2300578,18.3341334 52.2798844,17.6758344 C50.9741618,13.2045997 48.249422,9.19064118 44.4253179,6.34545769 C44.1,6.50505762 43.7811561,6.67481022 43.4659538,6.84943609 C43.2604046,6.96355208 43.0568786,7.08091691 42.856185,7.20112449 C42.6445665,7.32782978 42.4353757,7.45819003 42.2286127,7.59139302 C40.7371676,8.55589642 39.3804624,9.6954318 38.1819653,10.9771045" id="Fill-5" fill="#8FD1B7"></path>
                    <path d="M23.8273526,20.628027 C24.0203584,20.7608239 24.2109364,20.8968697 24.399896,21.035352 C24.4496647,20.8972758 24.4994335,20.7587934 24.5520347,20.6215293 C25.9771214,16.8930638 28.3522659,13.5609584 31.4630173,10.9992373 C30.2596647,9.70863027 28.8960809,8.56137886 27.3961387,7.59159608 C27.1893757,7.45798697 26.980185,7.32803283 26.7685665,7.20132754 C26.5674682,7.08071386 26.3643468,6.96375513 26.1587977,6.84963915 C25.8435954,6.67460716 25.5247514,6.50485457 25.1990289,6.34525464 C21.4137688,9.16201066 18.7044046,13.1235814 17.383711,17.5399917 C19.4011676,18.1434663 21.3097803,19.0186262 23.0642312,20.1264853 C23.3215723,20.2889279 23.5764855,20.4554317 23.8273526,20.628027" id="Fill-7" fill="#8FD1B7"></path>
                    <path d="M31.6234913,26.7911022 C31.8557457,26.6026687 32.0920462,26.4187024 32.3327977,26.2387971 C33.0190405,25.7254782 33.7364393,25.2462723 34.4858035,24.8088954 L34.8301387,24.59772 L35.1793295,24.8088954 C35.9141272,25.2377441 36.6181734,25.7063912 37.2926821,26.2083391 C37.5334335,26.3874321 37.7697341,26.5709924 38.0023931,26.7586137 C38.2338382,26.9454227 38.4620462,27.1358868 38.6853988,27.330818 C38.9358613,27.5497095 39.1830867,27.7718499 39.4230289,28.000894 C40.6919306,25.8330965 42.3003121,23.8996225 44.1704855,22.2666675 C42.8959191,18.2896647 40.4904277,14.7277029 37.2311792,12.0648613 C37.0410058,11.9093224 36.8484046,11.7570324 36.6521618,11.6075852 C36.4652254,11.4654478 36.2754566,11.3257471 36.0832601,11.1888892 C35.6786358,10.9013656 35.2630867,10.6260253 34.8362081,10.3657109 C34.3988092,10.632523 33.9739538,10.9155794 33.5596185,11.2108189 C33.367422,11.348083 33.1776532,11.4877837 32.9907168,11.6307332 C32.7952832,11.7801805 32.6026821,11.9332827 32.4129133,12.0888216 C29.2475376,14.6838434 26.8893873,18.1268159 25.5962081,21.9746768 C27.5343584,23.6027586 29.2070751,25.5471974 30.528578,27.738143 C30.6649364,27.612656 30.8016994,27.4879813 30.9412948,27.3657432 C31.1642428,27.1699997 31.3920462,26.9787235 31.6234913,26.7911022" id="Fill-9" fill="#8FD1B7"></path>
                    <path d="M45.8226069,22.7641482 C45.6886763,22.8713604 45.5563642,22.9814153 45.4248613,23.0918763 C45.3564798,23.1491374 45.287289,23.2055862 45.2197168,23.2636595 C45.0109306,23.4435647 44.8065954,23.6283433 44.6046879,23.8159646 C44.5613931,23.8561691 44.5189075,23.897592 44.4760173,23.9382027 C42.9016243,25.4273959 41.5461329,27.1529433 40.4718555,29.0669241 C40.8659595,29.4941483 41.2410462,29.9372108 41.6007572,30.3916441 C41.7617977,30.5955097 41.9196012,30.8018119 42.073763,31.0105507 C42.2222601,31.2119797 42.3675202,31.4158452 42.5095434,31.6217413 C43.2091387,32.6366019 43.827,33.7058809 44.3570578,34.8186132 C44.5164798,35.1532451 44.6690231,35.4907198 44.8118555,35.8326616 C44.8830694,36.001602 44.9506416,36.1721668 45.0174046,36.3431377 C45.1679249,36.2554187 45.3204682,36.1713546 45.4726069,36.0872905 C47.0753237,35.2044146 48.7735318,34.5164698 50.5287919,34.0372639 C50.8456127,33.9507632 51.1644566,33.8723846 51.4849191,33.7996915 C51.7746301,33.7334961 52.0659595,33.6737984 52.3580983,33.6193801 C54.7676358,33.1677895 57.2536474,33.0991575 59.720237,33.4390688 C60.0589075,28.0971413 58.4189653,22.717446 55.0002948,18.4557623 C54.6729538,18.5223638 54.3484451,18.599118 54.0259595,18.6803393 C53.7973468,18.7380065 53.569948,18.7997347 53.343763,18.8647118 C53.1074624,18.9325316 52.8723757,19.0048186 52.6393121,19.0807605 C50.333763,19.8308396 48.1868266,20.9606284 46.2814509,22.4047438 C46.1268844,22.5221086 45.974341,22.6427223 45.8226069,22.7641482" id="Fill-11" fill="#8FD1B7"></path>
                    <path d="M17.2597341,33.6047197 C17.5510636,33.6583258 17.8415838,33.7172112 18.1304855,33.7817822 C18.4497341,33.853257 18.7677688,33.9291989 19.0833757,34.0140752 C20.8580578,34.4912506 22.5748786,35.1820381 24.1945896,36.0714117 C24.3527977,36.1579125 24.5101965,36.2448193 24.6663815,36.3353811 C24.7307168,36.1705018 24.7958613,36.0056225 24.8638382,35.8423676 C25.0066705,35.4996135 25.1588092,35.1613266 25.3178266,34.8266947 C25.8410058,33.7237089 26.4499653,32.6641766 27.1394451,31.6574381 C27.2810636,31.4507298 27.4259191,31.246052 27.5744162,31.0438109 C27.7277688,30.8346659 27.884763,30.6279576 28.0453988,30.4240921 C28.4929133,29.8555427 28.9675376,29.3072987 29.4680578,28.7817966 C28.3100231,26.7910616 26.8469017,25.0098776 25.1474798,23.496318 C25.100948,23.4548951 25.0548208,23.4130661 25.008289,23.3720493 C24.8504855,23.2343792 24.6910636,23.0991456 24.5296185,22.9659426 C24.391237,22.8514206 24.2508324,22.7393351 24.1096185,22.628468 C24.0497341,22.5813596 23.9902543,22.5338451 23.9295607,22.4871429 C23.7155145,22.3226696 23.4986358,22.1610392 23.2785202,22.0046881 C21.3860925,20.6608811 19.2735491,19.6188113 17.0161503,18.9385826 C16.7822775,18.86792 16.5467861,18.8017246 16.3096763,18.7391842 C16.0822775,18.6790804 15.8532601,18.6226316 15.6234335,18.5702438 C15.4510636,18.5304453 15.2786936,18.491053 15.1047052,18.4557217 C11.6973642,22.7031916 10.0562081,28.0617694 10.3811214,33.3862343 C12.6874798,33.1104878 15.0067861,33.190897 17.2597341,33.6047197" id="Fill-13" fill="#8FD1B7"></path>
                    <path d="M24.7736474,22.215092 C24.7704104,22.1968172 24.7667688,22.1785424 24.7635318,22.1606737 C24.7598902,22.1728569 24.7558439,22.1850401 24.7517977,22.1976294 C24.7590809,22.2033149 24.7663642,22.2094065 24.7736474,22.215092" id="Fill-15" fill="#A5D296"></path>
                    <path d="M34.6037919,48.0336499 C34.6179538,48.0714178 34.6325202,48.1091857 34.6466821,48.1469536 C34.7174913,48.2326422 34.7907283,48.3167062 34.8591098,48.4044253 C34.9153526,48.3325444 34.975237,48.2643185 35.0330983,48.194062 C35.0553526,48.1339582 35.0776069,48.0742605 35.1002659,48.0145629 C35.2495723,47.6238882 35.4089942,47.2376808 35.5789364,46.8563466 C35.9394566,46.0477881 36.3469133,45.2615656 36.7976647,44.5005216 C36.9728671,44.204876 37.1553526,43.9128853 37.3435029,43.6253617 C37.5377225,43.3289038 37.7392254,43.0369131 37.9472023,42.7493896 C37.9957572,42.682382 38.0439075,42.6153744 38.0932717,42.5487729 C38.2369133,42.3542478 38.3829827,42.1617532 38.5330983,41.9716953 C38.6824046,41.7824496 38.8345434,41.5948283 38.9899191,41.4100497 C39.407896,40.9133812 39.8477225,40.432957 40.3085896,39.9704015 C41.2861618,38.9892477 42.3430405,38.111245 43.4606127,37.3351752 C43.5662197,37.262076 43.671422,37.1877584 43.7782428,37.1162836 C43.7426358,37.0220669 43.7046012,36.9290685 43.6673757,36.8356639 C43.1166821,35.4386569 42.4251792,34.1017537 41.6013642,32.8493206 C41.4654104,32.6426123 41.3250058,32.4383407 41.1817688,32.2360995 C41.0348902,32.0281729 40.8835607,31.8234951 40.7293988,31.6208479 C40.4218844,31.2171778 40.0998035,30.8244727 39.7639653,30.4427324 C39.592,30.2469889 39.4167977,30.0544944 39.2379538,29.8648425 C39.0639653,29.6808762 38.8875491,29.4997526 38.7070867,29.3218779 C38.6362775,29.2520275 38.5650636,29.1825833 38.4930405,29.1135452 C38.284659,28.9137407 38.071422,28.7179972 37.8545434,28.5263149 C37.6360462,28.3330081 37.4139075,28.1429502 37.1869133,27.9581716 C36.438763,27.3486055 35.6469133,26.7845233 34.812578,26.2756716 C33.9778382,26.7845233 33.1859884,27.3486055 32.4374335,27.9585777 C32.2108439,28.1433563 31.9887052,28.3330081 31.7702081,28.5263149 C31.5913642,28.6846965 31.414948,28.8459208 31.2417688,29.0099879 C31.2053526,29.044507 31.1681272,29.07862 31.131711,29.1135452 C30.9868555,29.2528398 30.8440231,29.3941649 30.7032139,29.5371144 C30.5231561,29.7202686 30.345526,29.9058593 30.1719422,30.0946989 C29.7224046,30.5844636 29.2971445,31.0937214 28.8953526,31.621254 C28.7411908,31.8234951 28.5898613,32.0281729 28.4429827,32.2360995 C28.2997457,32.4383407 28.159341,32.6426123 28.0233873,32.8493206 C27.211711,34.0834789 26.5283006,35.3996707 25.9812486,36.7743418 C25.9411908,36.8754624 25.8995145,36.9757707 25.8606705,37.0772974 C25.9755838,37.1536455 26.088474,37.2336485 26.2021734,37.3120271 C27.332289,38.0937825 28.4004971,38.9795012 29.388185,39.9704015 C29.8373179,40.4211799 30.265815,40.8894209 30.6740809,41.3726879 C30.8298613,41.5570603 30.9832139,41.7434633 31.1329249,41.9323029 C31.2830405,42.1215486 31.4295145,42.3140432 31.5735607,42.5077561 C31.7491676,42.7441102 31.9191098,42.9841193 32.0850058,43.2269711 C32.2852948,43.5185557 32.4795145,43.8146074 32.6656416,44.1151264 C32.8477225,44.4091476 33.0229249,44.7080422 33.1916532,45.0101855 C33.5315376,45.6189395 33.8451214,46.2423133 34.128763,46.8799008 C34.2974913,47.2596105 34.4556994,47.6445997 34.6037919,48.0336499" id="Fill-17" fill="#8FD1B7"></path>
                    <path d="M14.5628324,49.7059566 C14.862659,49.2003538 15.1984971,48.7187113 15.5646821,48.2630595 C15.7119653,48.0794993 15.864104,47.9000002 16.0219075,47.7253743 C16.1869942,47.5418141 16.3577457,47.3631271 16.5333526,47.1901257 C18.2906358,45.4601112 20.5613873,44.2535682 23.0959538,43.8247195 C23.3120231,43.7881699 23.5305202,43.7589302 23.7502312,43.7337516 C23.9893642,43.7065425 24.2301156,43.685831 24.4732948,43.6728356 C24.700289,43.6602463 24.9280925,43.6521242 25.1575145,43.6521242 C25.6438728,43.6521242 26.122948,43.6809577 26.5943353,43.7361882 C27.3930636,43.8291867 28.1663006,44.0030003 28.9108092,44.2421972 C29.0540462,44.2880872 29.1972832,44.3335712 29.3380925,44.3847406 C29.7415029,44.530939 30.1335838,44.6998794 30.5159538,44.8858763 C30.882948,45.0641571 31.2382081,45.261525 31.5833526,45.4743249 C31.6946243,45.5429569 31.805896,45.6111828 31.9143353,45.6830637 C31.8285549,45.5303676 31.7423699,45.3776715 31.652948,45.2270059 C31.5271098,45.0150182 31.3972254,44.8050611 31.264104,44.5971344 C31.019711,44.2153941 30.7615607,43.8421821 30.4928902,43.4758738 C30.3504624,43.2817548 30.2047977,43.0904786 30.0554913,42.9008268 C29.9073988,42.7119872 29.7552601,42.5259903 29.600289,42.3416179 C29.209422,41.8770318 28.8003468,41.4258473 28.3690173,40.9929375 C28.2184971,40.8418658 28.0655491,40.6944491 27.9113873,40.5482507 C27.3760694,40.0426479 26.8184971,39.5670969 26.240289,39.1232223 C25.9574566,38.9063613 25.6693642,38.6992469 25.3772254,38.4974119 C25.2675723,38.4214699 25.1579191,38.3459341 25.047052,38.2724288 C24.9450867,38.204609 24.8423121,38.1384136 24.7391329,38.0726243 C24.5526012,37.9532289 24.3640462,37.8370824 24.1742775,37.7237786 C22.9154913,36.9724813 21.5875145,36.3523563 20.2121965,35.8731504 C19.8460116,35.7456329 19.476185,35.6294864 19.1039306,35.5218682 C18.7814451,35.4288697 18.4569364,35.3427751 18.1308092,35.2648026 C15.6577457,34.6726991 13.0790751,34.516348 10.5178035,34.8270196 C10.277052,34.8562593 10.0363006,34.8899661 9.79595376,34.927328 C9.5616763,34.9638776 9.32820809,35.0044882 9.09433526,35.04916 C8.73381503,35.117792 8.37410405,35.1929217 8.01560694,35.2806408 C6.51890173,41.4424976 7.81895954,47.9471085 11.4427746,53.0283155 C12.5664162,52.3931646 13.5140462,51.4798307 14.1921965,50.3813121 C14.3269364,50.1636389 14.4499422,49.9378435 14.5628324,49.7059566 Z" id="Fill-19" fill="#8FD1B7"></path>
                    <path d="M51.4826532,35.2838084 C51.1545029,35.3638114 50.829185,35.4527488 50.5054855,35.5481839 C50.1303988,35.6582388 49.7585491,35.7768219 49.3899364,35.9071822 C48.0441561,36.3827331 46.7440983,36.9935176 45.5103988,37.7310073 C45.3044451,37.8540577 45.1001098,37.980763 44.8977977,38.1111232 C44.8039249,38.1720392 44.7096474,38.2317369 44.6161792,38.2938712 C44.4964104,38.3738742 44.3778555,38.4563139 44.2593006,38.5391597 C43.9744451,38.7373397 43.6928266,38.9407992 43.4168728,39.1535991 C42.8305723,39.6055958 42.2661214,40.0912994 41.7243295,40.6074611 C41.5912081,40.7345725 41.4580867,40.86209 41.3273931,40.9928563 C40.8851387,41.4367309 40.4667572,41.8996926 40.0669884,42.3768679 C39.912422,42.5612404 39.7606879,42.7480494 39.6125954,42.9377013 C39.4640983,43.1273531 39.3184335,43.3194416 39.1764104,43.5139667 C38.9303988,43.8506291 38.6920751,44.1921648 38.4666994,44.5422288 C38.4213815,44.6124853 38.378896,44.6843661 38.3343873,44.7550287 C38.1514971,45.0462072 37.9754855,45.3410407 37.8067572,45.6403413 C37.7938092,45.6626772 37.7808613,45.685013 37.7679133,45.707755 C37.7840983,45.6967901 37.7998786,45.6854191 37.8160636,45.6744543 C38.0280867,45.5347536 38.2437514,45.3999261 38.4646763,45.2728147 C38.677104,45.1509827 38.8939827,45.0360545 39.1145029,44.9268118 C39.5041561,44.7330989 39.9055434,44.5596914 40.3178555,44.4078075 C40.4574509,44.3558258 40.6002832,44.3103419 40.742711,44.2636396 C41.4682023,44.0260672 42.222422,43.8522535 43.0005145,43.7531635 C43.5115549,43.6881864 44.0319017,43.6520429 44.560341,43.6520429 C44.7586069,43.6520429 44.9552543,43.6585406 45.1510925,43.6678811 C45.3938671,43.6792521 45.6350231,43.6971208 45.8741561,43.7227055 C46.1153121,43.7482902 46.3544451,43.7803726 46.5907457,43.819765 C49.2325376,44.2599847 51.5886647,45.544094 53.3783179,47.3857879 C53.549474,47.5620382 53.7157746,47.7435679 53.8764104,47.9295647 C54.0305723,48.1082517 54.1798786,48.2914058 54.3239249,48.478621 C54.6241561,48.8701078 54.9025376,49.2790573 55.1554277,49.7054693 C55.2683179,49.9377623 55.3913237,50.1631515 55.5260636,50.3808247 C56.2013815,51.4744701 57.1429422,52.3845552 58.2597052,53.0192999 C61.8790694,47.9393113 63.177104,41.4391676 61.6808035,35.2805596 C61.4546185,35.2253291 61.2276243,35.1737535 61.0002254,35.126239 C60.7675665,35.0771001 60.5345029,35.0324284 60.3010347,34.9910055 C60.0610925,34.9491765 59.8207457,34.9118147 59.5803988,34.8777017 C56.8584913,34.4951492 54.1098786,34.6437843 51.4826532,35.2838084" id="Fill-21" fill="#8FD1B7"></path>
                    <path d="M25.6102486,37.7725521 C25.6045838,37.768491 25.5985145,37.7644299 25.5924451,37.7603689 C25.5964913,37.7697093 25.6009422,37.7790498 25.6049884,37.7887963 C25.6070116,37.7835169 25.6086301,37.7778315 25.6102486,37.7725521" id="Fill-23" fill="#A5D296"></path>
                    <g id="Group-27" transform="translate(0.000000, 45.055101)">
                        <mask id="mask-2" fill="white">
                            <use xlink:href="#path-1"></use>
                        </mask>
                        <g id="Clip-26"></g>
                        <path d="M37.4615318,3.20698394 L37.4854046,3.20698394 L37.4854046,3.2228221 L36.7651734,3.78203102 L37.4615318,3.20698394 Z M39.2451156,5.93074153 C39.2451156,5.93074153 39.2467341,5.93317817 39.2475434,5.93439649 L38.2060405,6.91270752 L39.2451156,5.93074153 Z M34.6894509,8.98019669 L34.1452312,6.43999933 L34.7173699,8.98344554 L34.8225723,9.45046824 L34.6930925,8.98344554 L34.6894509,8.98019669 Z M32.5506069,7.30500658 L32.4045376,7.16936695 L32.2337861,7.53405076 L32.2309538,7.53405076 L32.5659827,7.14703108 L31.0539017,5.64849738 C31.0559249,5.64443632 31.0583526,5.60626229 31.0607803,5.60220122 L32.5930925,7.01667083 L34.0133237,5.90637513 L32.5930925,7.14053337 L32.8730925,7.53405076 L32.9204335,7.53405076 L32.2774855,7.30663101 L32.2774855,7.35780045 L32.5506069,7.30500658 Z M31.8154046,7.30500658 L31.8627457,7.30500658 L32.2018208,7.6217698 L32.2018208,7.67253314 L31.8154046,7.30500658 Z M13.7068497,10.6521379 L13.7060405,10.6529502 C13.2941329,10.2391274 12.905289,9.80743602 12.5318208,9.36518584 C12.9056936,9.80702992 13.2945376,10.2383152 13.7068497,10.6521379 L13.7068497,10.6521379 Z M30.6941908,6.24506811 C30.6387572,6.34090929 30.5760405,6.43350162 30.5125145,6.52568784 C30.574422,6.42294285 30.637948,6.32101007 30.698237,6.21745286 C30.7658092,6.10008802 30.8301445,5.98109876 30.8960983,5.86292172 C30.8293353,5.99165754 30.7621676,6.11998725 30.6913584,6.24222537 L30.6941908,6.24506811 Z M61.9866185,10.3938541 C60.839104,10.3938541 59.7284104,10.1778053 58.6990462,9.77494749 C58.5331503,9.98368633 58.3619942,10.1883641 58.188815,10.3918236 C58.3619942,10.1883641 58.5327457,9.98328022 58.6986416,9.77494749 C58.4680058,9.6847918 58.2418208,9.58529566 58.0200867,9.47645907 C57.7995665,9.36843469 57.5843064,9.24903932 57.3734971,9.12274014 C56.9393353,9.65189716 56.4784682,10.1631855 55.9904913,10.6529502 L55.9896821,10.6521379 C56.4780636,10.1619672 56.9389306,9.65149105 57.3734971,9.12192793 C56.1458671,8.38849924 55.0877746,7.36145541 54.301185,6.08790482 C54.154711,5.85073852 54.0159249,5.60017069 53.8884682,5.34229294 C53.6938439,5.01821979 53.4793931,4.70998481 53.2548266,4.41068418 C53.1128035,4.22225068 52.9655202,4.03869045 52.8125723,3.86040961 C52.652341,3.67360053 52.4864451,3.49288306 52.3148844,3.31825718 C50.7210694,1.69707926 48.6502023,0.603027828 46.4089884,0.20991655 C46.104711,0.156310466 45.7980058,0.115699797 45.4884682,0.0888967551 C45.1809538,0.0620937134 44.8718208,0.0434128055 44.5606647,0.0434128055 C44.532341,0.0434128055 44.5048266,0.0454433389 44.4769075,0.0458494456 C42.4719942,0.0608753933 40.5569075,0.620896523 38.8991618,1.63981822 C38.6863295,1.77058457 38.4771387,1.90663031 38.2732081,2.05242262 C38.2732081,2.05242262 38.2728035,2.0516104 38.2728035,2.05079819 C38.0717052,2.19455996 37.8730347,2.34197669 37.6812428,2.49954608 C37.6804335,2.49751555 37.6796243,2.49548502 37.678815,2.49345448 C37.4077168,2.71721927 37.1467341,2.96575657 36.8954624,3.20698394 C36.8436705,3.20698394 36.7651734,3.32800374 36.7651734,3.38120372 C36.5248266,3.53755479 36.4580636,3.69877915 36.3168497,3.86487679 C36.2747688,3.98061719 36.2371387,4.09595149 36.1974855,4.21291022 L36.1893931,4.21900182 C35.9421676,4.94512059 35.7265029,5.6862653 35.5573699,6.43999933 L35.0139595,8.89532039 L35.0103179,8.89856925 L34.8541329,9.56539644 L34.850896,9.55361934 L34.9981792,8.89856925 L35.5513006,6.43999933 C35.7208382,5.6862653 35.9304335,4.94512059 36.177659,4.21900182 C36.2181214,4.10001256 36.2622254,3.98264773 36.304711,3.86487679 C36.1995087,3.98833322 36.0943064,4.11178966 35.9939595,4.24093158 L35.7564451,4.54591771 L35.054422,5.44544404 L34.8593931,5.69601187 L34.6384682,5.4129555 L34.6299711,5.40199062 L33.724422,4.24093158 C33.6115318,4.09595149 33.4941908,3.95625079 33.3752312,3.81817452 C33.0495087,3.43968308 32.7007225,3.08840079 32.3333237,2.76270322 C32.1447688,2.59579337 31.9505491,2.43659955 31.7522832,2.28390343 C31.551185,2.12917678 31.3456358,1.98094784 31.1348266,1.84124714 C29.3836127,0.679781993 27.3216474,0.0434128055 25.1577168,0.0434128055 C25.1536705,0.0434128055 25.1496243,0.0438189122 25.145578,0.0438189122 C24.8097399,0.0442250189 24.4767341,0.0657486736 24.1453468,0.0974249956 C23.8556358,0.125040251 23.567948,0.163620387 23.2830925,0.214383723 C21.1361561,0.596124015 19.1445954,1.61788845 17.5827457,3.13307253 C17.4055202,3.30485566 17.2351734,3.4835426 17.0696821,3.66710283 C16.9130925,3.8413226 16.7613584,4.02082176 16.6156936,4.2056003 C19.7228035,6.97402963 23.5671387,8.90344253 27.7756358,9.67139028 L28.1818786,9.74570781 L28.1810694,9.74692613 L27.7723988,9.67139028 C23.5634971,8.90344253 19.7207803,6.97402963 16.6140751,4.2056003 C16.3300289,4.56541083 16.0678324,4.94430838 15.8286994,5.34229294 C15.7008382,5.6009829 15.5628613,5.85155073 15.4163873,6.08831093 C14.6269653,7.36714091 13.5636127,8.39743359 12.3307225,9.13167449 L12.3307225,9.13167449 C12.1195087,9.25756756 11.9046532,9.37696293 11.6837283,9.4845812 C11.461185,9.59301169 11.2345954,9.69128951 11.0035549,9.7814452 L11.0031503,9.78063298 C9.97823699,10.1794298 8.87361272,10.3942602 7.73216763,10.3942602 C4.4599711,10.3942602 1.58794798,8.64190982 -0.000202312139,6.02252165 C0.773843931,9.35178432 2.45869942,12.4053005 4.92933526,14.8784903 C8.41800578,18.371414 13.0602601,20.2951414 18.0003179,20.2951414 C18.3956358,20.2951414 18.6873699,20.2882376 18.9778902,20.2723994 C23.7868497,20.0141155 28.3586994,17.8662172 31.481185,14.3797913 C31.7211272,14.1125731 31.961474,13.838045 32.2018208,13.5553947 C32.441763,13.2528452 32.6821098,12.9421736 32.922052,12.6225676 C33.1623988,12.3033678 33.4019364,11.9744213 33.6135549,11.6385711 L33.9396821,11.1618018 L34.2933237,10.5575151 L34.2941329,10.5583273 L34.6595087,9.95525886 L32.922052,8.34545193 L34.6732659,9.95525886 L34.8456358,9.7030666 L34.9884682,9.90002835 L36.7651734,8.2585451 L34.9953468,9.90002835 L35.4007803,10.5355853 L35.3975434,10.5384281 L35.7786994,11.1618018 L36.0898555,11.6385711 C36.3010694,11.9740152 36.5248266,12.3029617 36.7651734,12.6221615 C37.0051156,12.9417675 37.2454624,13.2524391 37.4854046,13.5549886 C37.7257514,13.8376388 37.9660983,14.1125731 38.2060405,14.3797913 C41.328526,17.8686539 45.9165607,20.0181766 50.724711,20.2764605 C51.0868497,20.2959536 51.4097399,20.305294 51.7237283,20.305294 C56.6629769,20.305294 61.3019942,18.3799422 64.7918786,14.8837697 C67.2629191,12.4081433 68.9469653,9.35178432 69.7202023,6.02049111 C68.1324566,8.6406915 65.2596243,10.3938541 61.9866185,10.3938541 L61.9866185,10.3938541 Z" id="Fill-25" fill-opacity="0.651947464" fill="#8FD1B6" mask="url(#mask-2)"></path>
                    </g>
                    <path d="M34.025422,48.5277599 C34.0213757,48.5228866 34.0173295,48.5180133 34.0132832,48.51314 C34.0144971,48.5159828 34.0153064,48.5192316 34.0165202,48.5224805 C34.0197572,48.5241049 34.0225896,48.5261355 34.025422,48.5277599" id="Fill-28" fill="#A5D296"></path>
                </g>
            </g>
        </g>
    </g>
</svg>