<svg style="display: none;" xmlns="http://www.w3.org/2000/svg" xmlns:xlink="http://www.w3.org/1999/xlink"><symbol id="side-icon-calculator" viewBox="0 0 48 48"><title>calculator</title><g ><rect data-color="color-2" x="6" y="2" fill="none" stroke="currentColor" stroke-linecap="square" stroke-miterlimit="10" width="38" height="44" stroke-linejoin="miter"/><rect x="12" y="8" fill="none" stroke-linecap="square" stroke-miterlimit="10" width="26" height="8" stroke-linejoin="miter"/><rect x="12" y="22" fill="none" stroke-linecap="square" stroke-miterlimit="10" width="10" height="6" stroke-linejoin="miter"/><rect x="28" y="22" fill="none" stroke-linecap="square" stroke-miterlimit="10" width="10" height="18" stroke-linejoin="miter"/><rect x="12" y="34" fill="none" stroke-linecap="square" stroke-miterlimit="10" width="10" height="6" stroke-linejoin="miter"/></g></symbol><symbol id="side-icon-agenda-bookmark" viewBox="0 0 48 48"><title>agenda bookmark</title><g ><polyline data-color="color-2" fill="none" stroke="currentColor" stroke-linecap="square" stroke-miterlimit="10" points="&#10;&#9;26,2 26,16 20,12 14,16 14,2 " stroke-linejoin="miter"/><path fill="none" stroke-linecap="square" stroke-miterlimit="10" d="M36,2h2c2.2,0,4,1.8,4,4v36&#10;&#9;c0,2.2-1.8,4-4,4h-4" stroke-linejoin="miter"/><rect x="6" y="2" fill="none" stroke-linecap="square" stroke-miterlimit="10" width="30" height="44" stroke-linejoin="miter"/></g></symbol><symbol id="side-icon-box" viewBox="0 0 48 48"><title>box</title><g ><rect x="2" y="4" fill="none" stroke-linecap="square" stroke-miterlimit="10" width="44" height="10" stroke-linejoin="miter"/><polyline fill="none" stroke-linecap="square" stroke-miterlimit="10" points="42,19 42,44 6,44 &#10;&#9;6,19 " stroke-linejoin="miter"/><rect data-color="color-2" x="18" y="22" fill="none" stroke="currentColor" stroke-linecap="square" stroke-miterlimit="10" width="12" height="6" stroke-linejoin="miter"/></g></symbol><symbol id="side-icon-home-51" viewBox="0 0 48 48"><title>home 51</title><g ><polyline data-cap="butt" fill="none" stroke-miterlimit="10" points="8,18.5 8,44 20,44 20,34 &#10;&#9;28,34 28,44 40,44 40,18.5 " stroke-linejoin="miter" stroke-linecap="butt"/><polyline data-cap="butt" data-color="color-2" fill="none" stroke="currentColor" stroke-miterlimit="10" points="2,24 24,4 46,24 " stroke-linejoin="miter" stroke-linecap="butt"/><rect data-color="color-2" x="20" y="18" fill="none" stroke="currentColor" stroke-linecap="square" stroke-miterlimit="10" width="8" height="8" stroke-linejoin="miter"/></g></symbol><symbol id="side-icon-settings-gear-64" viewBox="0 0 48 48"><title>settings gear 64</title><g ><path fill="none" stroke-linecap="square" stroke-miterlimit="10" d="M46,28v-8h-4.11&#10;&#9;c-1.369,0-2.591-0.831-3.112-2.097c-0.574-1.392-0.218-2.805,0.701-3.724l2.907-2.907l-5.657-5.657l-2.907,2.907&#10;&#9;c-0.919,0.919-2.332,1.275-3.724,0.701C28.831,8.701,28,7.48,28,6.11V2h-8v4.11c0,1.369-0.831,2.591-2.097,3.112&#10;&#9;c-1.392,0.574-2.805,0.218-3.724-0.701l-2.907-2.907l-5.657,5.657l2.907,2.907c0.919,0.919,1.275,2.332,0.701,3.724&#10;&#9;C8.701,19.169,7.48,20,6.11,20H2v8h4.11c1.293,0,2.55,0.743,3.129,2.138c0.525,1.265,0.251,2.714-0.718,3.683l-2.907,2.907&#10;&#9;l5.657,5.657l2.907-2.907c0.969-0.969,2.418-1.243,3.683-0.718C19.252,39.338,20,40.592,20,41.89V46h8v-4.11&#10;&#9;c0-1.293,0.743-2.55,2.138-3.129c1.265-0.525,2.714-0.251,3.683,0.718l2.907,2.907l5.657-5.657l-2.907-2.907&#10;&#9;c-0.919-0.919-1.275-2.332-0.701-3.724C39.299,28.831,40.521,28,41.89,28H46z" stroke-linejoin="miter"/><circle data-color="color-2" fill="none" stroke="currentColor" stroke-linecap="square" stroke-miterlimit="10" cx="24" cy="24" r="6" stroke-linejoin="miter"/></g></symbol><symbol id="side-icon-lab" viewBox="0 0 48 48"><title>lab</title><g ><line data-cap="butt" data-color="color-2" fill="none" stroke="currentColor" stroke-miterlimit="10" x1="14.2" y1="32" x2="33.8" y2="32" stroke-linejoin="miter" stroke-linecap="butt"/><path fill="none" stroke-linecap="square" stroke-miterlimit="10" d="M11.9,46h24.3&#10;&#9;c3.3,0,5.2-3.7,3.2-6.4L28,24V8h4.1V2H28h-8h-4v6h4v16L8.6,39.6C6.7,42.3,8.6,46,11.9,46z" stroke-linejoin="miter"/></g></symbol></svg>
