<svg xmlns="http://www.w3.org/2000/svg" viewBox="0 0 525.61 487.78"><defs><style>.cls-1{fill:#49b778;}.cls-2{fill:#37895a;}.cls-3{fill:#f9f9f9;}</style></defs><title>Asset 2</title><g id="Layer_2" data-name="Layer 2"><g id="Layer_1-2" data-name="Layer 1"><path class="cls-1" d="M234.33,113.46a96,96,0,0,1,16.13-11.79l1.76-.9,1.76.85a95.9,95.9,0,0,1,17.43,13,96.64,96.64,0,0,1,19.12-22.9A89.6,89.6,0,0,0,252.22,43a89.59,89.59,0,0,0-37.86,47.35A96.64,96.64,0,0,1,234.33,113.46Z"/><path class="cls-1" d="M296.31,87a96.46,96.46,0,0,1,28.94-14.86,89.55,89.55,0,0,0-32.06-45.8,89.1,89.1,0,0,0-25.7,19.1A96.85,96.85,0,0,1,296.31,87Z"/><path class="cls-1" d="M243.67,40.25c2.19-1.54,4.45-3,6.79-4.36l1.76-1,1.76,1q4.15,2.41,8,5.2a96.37,96.37,0,0,1,17.54-15A89.23,89.23,0,0,0,252.22,0a89.21,89.21,0,0,0-26.68,25.23A96.13,96.13,0,0,1,243.67,40.25Z"/><path class="cls-1" d="M208.54,85.83a96.83,96.83,0,0,1,29.52-41.34,89.07,89.07,0,0,0-24.82-18.17,89.55,89.55,0,0,0-32.06,45.8A96.42,96.42,0,0,1,208.54,85.83Z"/><path class="cls-1" d="M355.5,136.62a89.61,89.61,0,0,0-19.43-60.09,89.63,89.63,0,0,0-59.57,43.23,97,97,0,0,1,18.35,29.07A96.8,96.8,0,0,1,355.5,136.62Z"/><path class="cls-1" d="M209.76,148.36a96.84,96.84,0,0,1,19.42-29.89,89.63,89.63,0,0,0-58.83-41.94,89.6,89.6,0,0,0-19.44,60A96.8,96.8,0,0,1,209.76,148.36Z"/><path class="cls-1" d="M251.81,108.53A89.53,89.53,0,0,0,215.36,152a96,96,0,0,1,30.29,32.59,89.25,89.25,0,0,1,6.69,14.92A88.69,88.69,0,0,1,259,184.68l0-.06A96.36,96.36,0,0,1,274.69,164a95.33,95.33,0,0,1,13.78-11.39A89.53,89.53,0,0,0,251.81,108.53Z"/><path class="cls-1" d="M252.1,237.14a85.3,85.3,0,0,1-10.75,13.63v20.86h21V250.25A74.61,74.61,0,0,1,252.1,237.14Z"/><path class="cls-2" d="M292.58,186.83a44.55,44.55,0,0,1,38,21.46c.54,1.08,1.13,2.14,1.75,3.14a38.6,38.6,0,0,0,62.61,4.32,76,76,0,0,1-72.52,53.13c-1.29,0-2.64,0-4.13-.12a76.08,76.08,0,0,1-60.14-35.36L252.19,224l-5.92,9.37a76.08,76.08,0,0,1-60.14,35.35c-1.2.06-2.51.09-4.13.09a76,76,0,0,1-72.51-53.08,38.6,38.6,0,0,0,62.61-4.33c.62-1,1.21-2.05,1.75-3.14a44.55,44.55,0,0,1,38-21.46,44,44,0,0,1,34.88,17l5.51,7,5.51-7a44,44,0,0,1,34.88-17"/><path class="cls-1" d="M166.55,207.74a31.5,31.5,0,0,0,1.54-2.8,51.27,51.27,0,0,1,71.79-17,89.19,89.19,0,0,0-98.47-42.66,89.5,89.5,0,0,0,14.38,73A31.91,31.91,0,0,0,166.55,207.74Z"/><path class="cls-1" d="M293,179.83a51.27,51.27,0,0,1,44.11,25.11,31.56,31.56,0,0,0,1.54,2.8,31.9,31.9,0,0,0,10.92,10.67A89.56,89.56,0,0,0,364,145.26a89.2,89.2,0,0,0-98.35,42.47A51,51,0,0,1,293,179.83Z"/><path class="cls-3" d="M0,338.68H39.37C73.79,338.68,96,361.5,96,397.07s-22.25,58.38-56.67,58.38H0Zm38.6,99.08c24.53,0,37.65-15.78,37.65-40.7,0-25.1-13.12-40.89-37.65-40.89H19.78v81.58Z"/><path class="cls-3" d="M159.36,401.44c0-9.51-7.61-15-19.4-15-9.13,0-16.54,2.85-23.39,7.42v-17.5c5.52-4,16.16-7.23,26.81-7.23,21.87,0,34.23,11.79,34.23,31v55.34H159.36V450.7c-2.85,2.85-11.22,6.28-20.73,6.28-17.31,0-31.57-10.27-31.57-27.58,0-16,14.26-27.19,32.9-27.19,7.61,0,16,2.66,19.4,5.13Zm0,24.53c-2.09-5.32-9.51-8.56-17.12-8.56-8.56,0-17.5,3.61-17.5,12,0,8.56,8.94,12.17,17.5,12.17,7.61,0,15-3.23,17.12-8.56Z"/><path class="cls-3" d="M216.79,487.78h-19V371h19v7.23c3.8-4.75,12.17-9.13,21.49-9.13,24.72,0,39.17,20.54,39.17,44.12S263,457.35,238.28,457.35c-9.32,0-17.69-4.37-21.49-9.13Zm0-58.57A20.5,20.5,0,0,0,235,440.43c14.64,0,23.39-11.6,23.39-27.19S249.69,386,235,386a20.5,20.5,0,0,0-18.26,11.22Z"/><path class="cls-3" d="M313,487.78H294V371h19v7.23c3.8-4.75,12.17-9.13,21.49-9.13,24.72,0,39.17,20.54,39.17,44.12s-14.45,44.12-39.17,44.12c-9.32,0-17.69-4.37-21.49-9.13Zm0-58.57a20.5,20.5,0,0,0,18.26,11.22c14.64,0,23.39-11.6,23.39-27.19S345.91,386,331.27,386A20.5,20.5,0,0,0,313,397.26Z"/><path class="cls-3" d="M404.48,417.42C405.81,434,417,441,430.53,441c9.51,0,16.16-2.28,24.15-7.8v16.74c-7.23,5.32-16.16,7.42-26.81,7.42C403.15,457.35,386,440.62,386,414c0-26.43,16.16-44.88,38.79-44.88,23.39,0,35.56,16.73,35.56,41.46v6.85ZM405.62,403h36.7c-.57-10.27-6.47-17.88-17.31-17.88C416.65,385.09,408.47,390,405.62,403Z"/><path class="cls-3" d="M525.61,390.22c-2.66-1.9-7.23-2.85-11.22-2.85-7.8,0-15,4.37-16.93,13.5v54.58h-19V371h19v8.75c3.23-6.28,10.65-10.65,18.83-10.65,4.18,0,8,.76,9.32,1.52Z"/></g></g></svg>