<svg style="display: none;" xmlns="http://www.w3.org/2000/svg" xmlns:xlink="http://www.w3.org/1999/xlink"><symbol id="nc-icon-bold-remove" viewBox="0 0 48 48"><title>bold remove</title><g ><path d="M44.7,9.3l-6-6c-0.4-0.4-1-0.4-1.4,0L24,16.6L10.7,3.3c-0.4-0.4-1-0.4-1.4,0l-6,6c-0.4,0.4-0.4,1,0,1.4&#10;&#9;L16.6,24L3.3,37.3c-0.4,0.4-0.4,1,0,1.4l6,6c0.4,0.4,1,0.4,1.4,0L24,31.4l13.3,13.3c0.2,0.2,0.5,0.3,0.7,0.3s0.5-0.1,0.7-0.3l6-6&#10;&#9;c0.4-0.4,0.4-1,0-1.4L31.4,24l13.3-13.3C45.1,10.3,45.1,9.7,44.7,9.3z"/></g></symbol><symbol id="nc-icon-edit-72" viewBox="0 0 48 48"><title>edit 72</title><g ><path d="M27.6,10L4.3,33.3C4.1,33.5,4,33.7,4,34v9c0,0.6,0.4,1,1,1h9c0.3,0,0.5-0.1,0.7-0.3L38,20.4L27.6,10z"/><path data-color="color-2" fill="currentColor" d="M44.7,12.3l-9-9c-0.4-0.4-1-0.4-1.4,0L29,8.6L39.4,19l5.3-5.3C45.1,13.3,45.1,12.7,44.7,12.3z&#10;&#9;"/></g></symbol></svg>