<svg style="display: none;" xmlns="http://www.w3.org/2000/svg" xmlns:xlink="http://www.w3.org/1999/xlink"><symbol id="style-icon-under" viewBox="0 0 48 48"><title>simple down</title><path  d="M23.191,46.588C23.379,46.847,23.68,47,24,47s0.621-0.153,0.809-0.412l16-22&#10;&#9;c0.221-0.304,0.253-0.707,0.083-1.042C40.72,23.211,40.376,23,40,23h-9V2c0-0.552-0.448-1-1-1H18c-0.552,0-1,0.448-1,1v21H8&#10;&#9;c-0.376,0-0.72,0.211-0.891,0.546c-0.171,0.335-0.139,0.738,0.083,1.042L23.191,46.588z"/></symbol><symbol id="style-icon-over" viewBox="0 0 48 48"><title>simple up</title><path  d="M8,25h9v21c0,0.552,0.448,1,1,1h12c0.552,0,1-0.448,1-1V25h9c0.376,0,0.72-0.211,0.891-0.546&#10;&#9;c0.171-0.335,0.139-0.738-0.083-1.042l-16-22c-0.376-0.517-1.241-0.517-1.617,0l-16,22c-0.221,0.304-0.253,0.707-0.083,1.042&#10;&#9;C7.28,24.789,7.624,25,8,25z"/></symbol><symbol id="style-icon-fist" viewBox="0 0 48 48"><title>fist</title><g ><path d="M38,3H10c-5,0-9,4-9,9v13c0,5,4,9,9,9h1V21c0-0.6,0.4-1,1-1c0.6,0,1,0.4,1,1v13h10V21c0-0.6,0.4-1,1-1&#10;&#9;c0.6,0,1,0.4,1,1v13h10V21c0-0.6,0.4-1,1-1c0.6,0,1,0.4,1,1v13h1c5,0,9-4,9-9V12C47,7,43,3,38,3z"/><path d="M38,36H19c0,5,4,9,9,9h14c2.8,0,5-2.2,5-5v-8.7C45,34.1,41.7,36,38,36z"/></g></symbol><symbol id="style-icon-in-style" viewBox="0 0 48 48"><title>like</title><g ><path data-color="color-2" fill="currentColor" d="M9,23H2c-0.6,0-1,0.4-1,1v22c0,0.6,0.4,1,1,1h7V23z"/><path d="M11,47h1h24.9c3.5,0,6.4-2.5,6.9-5.9l2.2-14c0.3-2-0.3-4.1-1.6-5.6C43,19.9,41.1,19,39,19H25V8&#10;&#9;c0-3.9-3.1-7-7-7c-0.5,0-0.8,0.3-1,0.7L11,23V47z"/></g></symbol><symbol id="style-icon-sunglasses-48" viewBox="0 0 48 48"><title>sunglasses 48</title><g ><path d="M44.2,13C40.3,5.9,32.7,1,24,1C15.3,1,7.7,5.9,3.8,13H44.2z"/><path d="M42.6,15l-4.7,8.5C37.7,23.8,37.4,24,37,24h-8c-0.4,0-0.7-0.2-0.9-0.5L24,16.1l-4.1,7.4&#10;&#9;C19.7,23.8,19.4,24,19,24h-8c-0.4,0-0.7-0.2-0.9-0.5L5.4,15H2.8C1.7,17.8,1,20.8,1,24c0,12.7,10.3,23,23,23c12.7,0,23-10.3,23-23&#10;&#9;c0-3.2-0.7-6.2-1.8-9H42.6z M34.8,32.6C30.6,38.9,24.3,39,24,39c-0.6,0-1-0.4-1-1c0-0.6,0.4-1,1-1c0.2,0,5.5-0.1,9.2-5.6&#10;&#9;c0.3-0.5,0.9-0.6,1.4-0.3C35,31.5,35.1,32.1,34.8,32.6z"/></g></symbol></svg>
